<?xml version="1.0" standalone="no"?><!DOCTYPE svg PUBLIC "-//W3C//DTD SVG 1.1//EN" "http://www.w3.org/Graphics/SVG/1.1/DTD/svg11.dtd"><svg class="icon" width="200px" height="200.00px" viewBox="0 0 1024 1024" version="1.1" xmlns="http://www.w3.org/2000/svg"><path fill="#1296db" d="M512 0C229.248 0 0 229.248 0 512 0 794.752 229.248 1024 512 1024 794.752 1024 1024 794.752 1024 512 1024 229.248 794.752 0 512 0ZM730.4 710.88C697.984 773.184 643.552 821.12 577.216 845.856 544.768 857.952 510.784 864 476.832 864 441.184 864 406.016 856.128 371.776 844.064 350.56 836.576 327.712 794.56 339.2 770.752 348.768 750.88 380.768 774.112 401.344 782.24 448.768 800.928 501.216 801.344 548.992 783.52 596.704 765.728 658.112 731.36 681.376 686.56 691.552 666.976 698.24 657.696 717.92 667.776 737.6 677.856 740.576 691.328 730.4 710.88ZM704 543.232C619.232 543.232 568.576 523.744 536.256 486.176 531.488 480.64 512.192 451.392 512.096 451.392 509.824 451.392 477.856 482.08 470.72 488.736 432.448 524.352 387.392 543.232 320 543.232 216.064 543.232 153.312 504.864 134.624 439.328 128.512 417.952 128.48 352 128.512 349.504 129.44 297.792 178.496 288 320 288 345.504 288 368 291.52 398.176 299.008 401.376 299.808 413.888 303.04 419.04 304.352 459.36 314.816 481.664 318.688 512 318.688 538.464 318.688 555.232 315.008 584.768 304.544 588.512 303.232 660.64 281.376 704 281.376 828.48 281.376 895.968 299.328 895.968 360.864 895.968 392.96 893.408 415.744 882.656 442.88 857.728 505.696 799.168 543.232 704 543.232ZM606.0992 364.8992C570.3232 377.5712 546.9632 382.6912 512.0192 382.6912 475.0272 382.6912 448.1472 378.0192 402.9952 366.3072 397.8112 364.9632 385.7472 361.8592 382.7712 361.1232 357.2032 354.7872 339.4432 352.0032 319.9872 352.0032 261.1072 352.0032 194.5152 360.2272 192.2432 360.9312 189.5232 361.7632 190.6432 404.3872 195.5712 419.8752 207.4752 457.0592 242.4192 479.2352 319.9872 479.2352 370.6752 479.2352 400.3392 466.8192 427.0912 441.8912 432.2432 437.0912 452.8832 415.4592 458.7712 410.1792 475.0592 395.4912 491.4432 387.4592 511.8912 387.3952 536.8512 387.2992 552.8512 398.5632 567.1232 419.1712 569.1712 422.1472 581.9392 441.1552 584.7552 444.4192 603.8592 466.6272 636.6272 479.2352 703.9872 479.2352 773.5872 479.2352 808.1792 457.0592 823.1552 419.2672 830.1312 401.6672 831.9872 385.4112 831.9872 360.5792 831.9872 357.0912 787.9232 345.3792 703.9872 345.3792 669.0432 345.3792 609.9712 363.5232 606.0992 364.8992Z" /></svg>