<?xml version="1.0" standalone="no"?><!DOCTYPE svg PUBLIC "-//W3C//DTD SVG 1.1//EN" "http://www.w3.org/Graphics/SVG/1.1/DTD/svg11.dtd"><svg class="icon" width="200px" height="200.00px" viewBox="0 0 1024 1024" version="1.1" xmlns="http://www.w3.org/2000/svg"><path d="M1.892473 5.82612h1018.173881v1018.188283H1.892473z" fill="#769AFF" /><path d="M1.892473 5.82612l1018.166679 1018.181082M1.892473 1024.007202L1020.059152 5.82612" fill="#769AFF" /><path d="M506.842076 62.98547c-246.771109 0-447.530994 200.759885-447.530994 447.538196 0 222.227949 162.836093 407.057824 375.442662 441.64726-137.731205-32.644996-240.534496-156.577875-240.534496-304.139306V510.516464a42.028722 42.028722 0 0 1 42.028722-42.028722h541.173809a42.028722 42.028722 0 0 1 42.028722 42.028722v137.507954c0 147.561432-102.803291 271.49431-240.534496 304.139307 212.606569-34.582235 375.449863-219.419312 375.449863-441.647261 0.007202-246.771109-200.752683-447.530994-447.523792-447.530994z m-54.473141 378.568169a42.028722 42.028722 0 0 1-42.028723-42.028722c0-36.01536-29.303439-65.326-65.318798-65.326-36.022561 0-65.326 29.303439-65.326001 65.326a42.028722 42.028722 0 0 1-84.064646 0c0-82.379464 67.018384-149.390646 149.390647-149.390646s149.383445 67.018384 149.383444 149.390646a42.035924 42.035924 0 0 1-42.035923 42.028722z m322.244208 0a42.028722 42.028722 0 0 1-42.028722-42.028722c0-36.01536-29.303439-65.326-65.318799-65.326-36.022561 0-65.326 29.303439-65.326 65.326a42.028722 42.028722 0 0 1-84.064646 0c0-82.379464 67.018384-149.390646 149.390646-149.390646s149.383445 67.018384 149.383445 149.390646a42.028722 42.028722 0 0 1-42.035924 42.028722z" fill="#FFFFFF" /></svg>