<?xml version="1.0" standalone="no"?><!DOCTYPE svg PUBLIC "-//W3C//DTD SVG 1.1//EN" "http://www.w3.org/Graphics/SVG/1.1/DTD/svg11.dtd"><svg class="icon" width="200px" height="200.00px" viewBox="0 0 1024 1024" version="1.1" xmlns="http://www.w3.org/2000/svg"><path fill="#1296db" d="M401.2 424.281c0-48.799-39.525-88.318-88.318-88.318-48.797 0-88.322 39.574-88.322 88.318 0 48.742 39.579 88.321 88.322 88.321C361.62 512.602 401.2 473.078 401.2 424.281L401.2 424.281zM312.882 482.297c-32.015 0-57.961-26.002-57.961-58.016 0-32.016 25.946-57.958 57.961-57.958s58.012 25.942 58.012 57.958C370.894 456.294 344.897 482.297 312.882 482.297L312.882 482.297zM511.602 71C267.727 71 70 268.727 70 512.602c0 243.871 197.727 441.598 441.602 441.598 243.817 0 441.598-197.727 441.598-441.598C953.199 268.727 755.473 71 511.602 71L511.602 71zM511.602 909.542c-219.255 0-396.943-177.69-396.943-396.94 0-219.2 177.743-396.943 396.943-396.943 219.25 0 396.94 177.743 396.94 396.943C908.542 731.912 730.912 909.542 511.602 909.542L511.602 909.542zM710.322 578.893c-19.432-4.193-26.221 22.028-26.221 22.028-10.879 85.727-83.905 151.909-172.5 151.909-32.899 0-63.314-9.605-89.589-25.445-8.17-7.897-33.785-20.262-42.893-16.063-25.336 11.754-6.347 39.023-6.347 39.023 37.979 30.691 86.166 49.349 138.83 49.349 111.114 0 202.746-82.136 218.203-188.895C731.24 609.199 732.841 583.645 710.322 578.893L710.322 578.893zM599.919 468.495l176.696 0 0-44.214L599.919 424.281 599.919 468.495 599.919 468.495zM599.919 468.495" /></svg>