<?xml version="1.0" standalone="no"?><!DOCTYPE svg PUBLIC "-//W3C//DTD SVG 1.1//EN" "http://www.w3.org/Graphics/SVG/1.1/DTD/svg11.dtd"><svg class="icon" width="200px" height="200.00px" viewBox="0 0 1024 1024" version="1.1" xmlns="http://www.w3.org/2000/svg"><path d="M512 512m-405.333333 0a405.333333 405.333333 0 1 0 810.666666 0 405.333333 405.333333 0 1 0-810.666666 0Z" fill="#2953FF" /><path d="M340.053333 401.493333m-96 0a96 96 0 1 0 192 0 96 96 0 1 0-192 0Z" fill="#FCCA1E" /><path d="M683.946667 401.493333m-96 0a96 96 0 1 0 192 0 96 96 0 1 0-192 0Z" fill="#FCCA1E" /><path d="M512 797.226667c91.946667 0 169.173333-63.146667 190.72-148.266667 6.186667-24.746667-13.013333-48.64-38.4-48.64H359.466667c-25.386667 0-44.586667 23.893333-38.4 48.64 21.76 85.12 98.986667 148.266667 190.933333 148.266667z" fill="#FF354A" /></svg>